<svg version="1.2" xmlns="http://www.w3.org/2000/svg" viewBox="0 0 50 50" width="50" height="50"><style>.a{fill:#2d3f51}</style><path fill-rule="evenodd" class="a" d="m11.7 49.2c0 0.4-0.4 0.8-0.9 0.8h-10c-0.4 0-0.8-0.4-0.8-0.8 0-3.2 2.6-5.9 5.8-5.9 3.2 0 5.9 2.7 5.9 5.9zm-1.8-0.9c-0.3-1.6-1.6-2.9-3.2-3.2v1.6h-1.7v-1.6c-1.6 0.3-2.9 1.6-3.2 3.2zm40-11.6v5c0 0.4-0.3 0.8-0.8 0.8h-1.5q0 0.2-0.1 0.3l1 1.1c0.4 0.3 0.4 0.8 0 1.2l-3.5 3.5c-0.3 0.3-0.9 0.3-1.2 0l-1-1q-0.2 0-0.4 0.1v1.5c0 0.4-0.3 0.8-0.8 0.8h-5c-0.5 0-0.8-0.4-0.8-0.8v-1.5q-0.2-0.1-0.4-0.1l-1 1c-0.3 0.3-0.9 0.3-1.2 0l-3.5-3.5c-0.4-0.4-0.4-0.9 0-1.2l1-1.1q-0.1-0.1-0.1-0.3h-1.5c-0.5 0-0.8-0.4-0.8-0.8h-17.9c-1.7 0-3-1.3-3-3 0-1.6 1.3-2.9 3-2.9h1.4l3.2-5.8h-10.9c-2.3 0-4.2-1.9-4.2-4.2v-21.6c0-2.3 1.9-4.2 4.2-4.2h38.3c2.3 0 4.2 1.9 4.2 4.2v21.6c0 1.6-0.9 3-2.2 3.7q0.3 0 0.6 0.2l3.5 3.6c0.4 0.3 0.4 0.8 0 1.2l-1 1q0.1 0.2 0.1 0.3h1.5c0.5 0 0.8 0.4 0.8 0.9zm-48.3-15h43.3v-17.5c0-1.4-1.1-2.5-2.5-2.5h-38.3c-1.4 0-2.5 1.1-2.5 2.5zm40.8 6.6c1.4 0 2.5-1.1 2.5-2.5v-2.5h-43.3v2.5c0 1.4 1.1 2.5 2.5 2.5zm0 1.7v0.6q0.2 0.1 0.3 0.2l1.1-1q-0.7 0.2-1.4 0.2zm-7.8 0l0.8 0.8q0.2-0.1 0.3-0.2v-0.6zm-2.9 0l0.5 0.7 0.7-0.7zm-3.4 7.5h-18c-0.6 0-1.2 0.6-1.2 1.2 0 0.7 0.6 1.3 1.2 1.3h18zm2.3-1.7q0-0.1 0.1-0.3l-1-1c-0.4-0.4-0.4-0.9 0-1.2l1.3-1.4-1.3-1.9h-12.8l-3.2 5.8zm17.7 1.7h-1.2c-0.4 0-0.7-0.2-0.8-0.6q-0.2-0.6-0.5-1.2c-0.2-0.3-0.1-0.7 0.2-1l0.8-0.8-2.3-2.4-0.9 0.9c-0.3 0.2-0.7 0.3-1 0.1q-0.6-0.3-1.2-0.5c-0.3-0.1-0.6-0.4-0.6-0.8v-1.2h-3.3v1.2c0 0.4-0.2 0.7-0.6 0.8q-0.6 0.2-1.2 0.5c-0.3 0.2-0.7 0.1-1-0.1l-0.8-0.9-2.4 2.4 0.9 0.8c0.2 0.3 0.3 0.7 0.1 1q-0.3 0.6-0.5 1.2c-0.1 0.4-0.4 0.6-0.8 0.6h-1.2v3.3h1.2c0.4 0 0.7 0.3 0.8 0.6q0.2 0.6 0.5 1.2c0.2 0.4 0.1 0.7-0.1 1l-0.9 0.9 2.4 2.3 0.8-0.8c0.3-0.3 0.7-0.4 1-0.2q0.6 0.3 1.2 0.5c0.4 0.1 0.6 0.5 0.6 0.8v1.2h3.3v-1.2c0-0.3 0.3-0.7 0.6-0.8q0.6-0.2 1.2-0.5c0.3-0.2 0.7-0.1 1 0.2l0.9 0.8 2.3-2.3-0.8-0.9c-0.3-0.3-0.4-0.6-0.2-1q0.3-0.6 0.5-1.2c0.1-0.3 0.4-0.6 0.8-0.6h1.2zm-4.1 1.7c0 2.8-2.3 5-5 5-2.8 0-5-2.2-5-5 0-2.8 2.2-5 5-5 2.7 0 5 2.2 5 5zm-1.7 0c0-1.8-1.5-3.3-3.3-3.3-1.9 0-3.4 1.5-3.4 3.3 0 1.8 1.5 3.3 3.4 3.3 1.8 0 3.3-1.5 3.3-3.3zm-31.3-27.5l5.2 5.2-1.2 1.2-5.8-5.8c-0.3-0.3-0.3-0.9 0-1.2l5.8-5.8 1.2 1.2zm23.6 0.5l-5.8 5.9-1.2-1.2 5.2-5.2-5.2-5.3 1.2-1.2 5.8 5.9c0.3 0.3 0.3 0.8 0 1.1zm-17.2 5.8l7.5-15 1.5 0.7-7.5 15zm14.9-1.3h1.7v1.7h-1.7zm3.4 0h1.6v1.6h-1.6zm3.3 0h1.7v1.7h-1.7z"/></svg>